<?xml version="1.0" encoding="utf-8"?>
<!-- Generator: Adobe Illustrator 15.0.0, SVG Export Plug-In . SVG Version: 6.00 Build 0)  -->
<!DOCTYPE svg PUBLIC "-//W3C//DTD SVG 1.1//EN" "http://www.w3.org/Graphics/SVG/1.1/DTD/svg11.dtd">
<svg version="1.1" id="레이어_1" xmlns="http://www.w3.org/2000/svg" xmlns:xlink="http://www.w3.org/1999/xlink" x="0px"
	 y="0px" width="1379.206px" height="415px" viewBox="0 0 1379.206 415" enable-background="new 0 0 1379.206 415"
	 xml:space="preserve">
<path fill="#666666" d="M610.029,280.787h-18.474c-9.001,0-14.955-2.367-18.221-7.253c-3.534-5.28-5.334-13.083-5.334-23.188
	v-84.402h38.607c7.1,0,11.34-3.92,11.34-10.484v-4.24c0-6.564-4.236-10.485-11.34-10.485H568V93.617
	c0-6.564-4.239-10.483-11.343-10.483h-5.817c-7.103,0-11.343,3.918-11.343,10.483v47.117h-22.875
	c-7.104,0-11.343,3.919-11.343,10.485v4.24c0,6.562,4.239,10.484,11.343,10.484h22.876v85.619c0,7.354,0.783,14.337,2.326,20.752
	c1.608,6.677,4.374,12.57,8.229,17.52c3.924,5.047,9.271,9.055,15.862,11.907c6.492,2.834,14.539,4.267,23.929,4.267h20.188
	c7.1,0,11.34-3.92,11.34-10.484v-4.248C621.368,284.708,617.131,280.787,610.029,280.787z"/>
<path fill="#666666" d="M732.854,140.737h-12.66c-18.777,0-33.094,4.636-42.715,13.806v-3.023c0-3.095-1.205-5.804-3.516-7.861
	c-2.199-1.937-4.954-2.92-8.169-2.92h-5.477c-3.293,0-6.021,1.018-8.121,3.032c-2.103,2.036-3.226,4.707-3.226,7.75v144
	c0,6.563,4.238,10.485,11.342,10.485h5.478c3.167,0,5.88-0.899,8.069-2.688c2.361-1.943,3.618-4.635,3.618-7.797v-93.979
	c0-11.078,3.497-19.566,10.694-25.949c7.215-6.396,17.306-9.646,29.972-9.646h14.704c7.102,0,11.342-3.92,11.342-10.483v-4.24
	C744.195,144.654,739.954,140.737,732.854,140.737z"/>
<path fill="#666666" d="M785.199,140.737h-5.818c-7.102,0-11.342,3.919-11.342,10.484V295.52c0,6.563,4.24,10.485,11.342,10.485
	h5.818c7.105,0,11.344-3.922,11.344-10.485V151.222C796.543,144.654,792.303,140.737,785.199,140.737z"/>
<path fill="#666666" d="M788.621,83.136h-13.004c-3.293,0-6.02,1.018-8.119,3.033c-2.104,2.034-3.227,4.706-3.227,7.757v11.52
	c0,6.563,4.238,10.484,11.34,10.484h13.002c3.16,0,5.875-0.901,8.064-2.689c2.367-1.938,3.621-4.635,3.621-7.795v-11.52
	c0-3.096-1.209-5.815-3.52-7.87C794.59,84.116,791.84,83.136,788.621,83.136z"/>
<path fill="#666666" d="M999.1,186.024c-2.771-9.045-7.219-17.251-13.219-24.381c-6.061-7.181-14.055-13.034-23.771-17.389
	c-9.688-4.347-21.553-6.55-35.264-6.55c-14.902,0-27.346,2.429-36.943,7.217c-6.32,3.145-11.916,6.878-16.723,11.15v-4.851
	c0-6.565-4.24-10.484-11.342-10.484h-5.826c-7.1,0-11.338,3.919-11.338,10.484v201.901c0,6.563,4.234,10.484,11.338,10.484h5.826
	c7.102,0,11.342-3.92,11.342-10.484V290.52c4.795,4.188,10.375,7.912,16.686,11.125c9.619,4.901,22.064,7.39,36.98,7.39
	c13.693,0,25.563-2.202,35.254-6.552c9.723-4.354,17.721-10.207,23.777-17.387c5.99-7.128,10.439-15.323,13.219-24.392
	c2.699-8.859,4.309-17.99,4.77-27.045c0.234-3.123,0.354-6.551,0.354-10.299c0-3.74-0.117-7.167-0.354-10.193
	C1003.405,204.029,1001.797,194.9,999.1,186.024z M924.793,162.913c9.42,0,17.34,1.457,23.531,4.344
	c6.186,2.883,11.26,6.713,15.092,11.386c3.867,4.732,6.734,10.244,8.523,16.378c1.848,6.387,3.008,13.146,3.439,20.007
	c0.229,5.538,0.229,11.149,0.016,16.588c-0.439,6.959-1.604,13.787-3.453,20.261c-1.795,6.246-4.664,11.803-8.523,16.521
	c-3.818,4.665-8.881,8.443-15.033,11.215c-6.201,2.795-14.139,4.211-23.584,4.211c-8.982,0-16.738-1.459-23.053-4.346
	c-6.369-2.929-11.729-6.668-15.916-11.125c-4.178-4.434-7.291-9.537-9.27-15.18c-2.033-5.776-3.168-11.574-3.383-17.36
	c-0.236-2.962-0.338-6.806-0.338-11.539c0-4.729,0.105-8.565,0.338-11.526l0.006-0.152c0.205-5.854,1.342-11.804,3.387-17.687
	c2.002-5.787,5.09-11.126,9.201-15.889c4.057-4.706,9.336-8.621,15.664-11.625C907.76,164.426,915.617,162.913,924.793,162.913z"/>
<path fill="#666666" d="M1124.608,280.787h-18.473c-9,0-14.957-2.367-18.221-7.253c-3.537-5.28-5.336-13.083-5.336-23.188v-84.402
	h38.607c7.102,0,11.342-3.92,11.342-10.484v-4.24c0-6.564-4.24-10.485-11.342-10.485h-38.607V93.617
	c0-6.564-4.238-10.483-11.34-10.483h-5.822c-7.102,0-11.34,3.918-11.34,10.483v47.117h-22.877c-7.102,0-11.342,3.919-11.342,10.485
	v4.24c0,6.562,4.24,10.484,11.342,10.484h22.877v85.619c0,7.354,0.785,14.337,2.324,20.752c1.609,6.677,4.373,12.57,8.229,17.52
	c3.93,5.047,9.27,9.055,15.863,11.907c6.49,2.834,14.537,4.267,23.93,4.267h20.188c7.102,0,11.344-3.92,11.344-10.484v-4.248
	C1135.948,284.708,1131.711,280.787,1124.608,280.787z"/>
<path fill="#666666" d="M1233.408,137.704c-11.58,0-22.178,1.816-31.49,5.405c-9.344,3.617-17.43,8.685-24.021,15.068
	c-6.596,6.363-11.938,14.166-15.896,23.193c-3.918,8.944-6.387,18.888-7.324,29.538l-0.008,0.045
	c-0.23,3.105-0.352,7.25-0.352,12.411c0,5.179,0.119,9.315,0.355,12.466c0.939,10.647,3.406,20.592,7.324,29.541
	c3.941,9,9.354,16.857,16.064,23.336c6.715,6.498,14.865,11.575,24.234,15.086c9.289,3.479,19.76,5.246,31.107,5.246
	c11.053,0,21.223-1.438,30.23-4.271c8.963-2.822,16.689-6.279,22.959-10.275c6.387-4.049,11.428-8.424,15-12.994
	c3.799-4.889,5.799-9.025,6.072-12.496c0.387-3.166-0.807-5.976-3.385-7.92c-2.158-1.609-4.709-2.423-7.586-2.423h-5.479
	c-3.047,0-5.346,0.351-7.014,1.089c-1.787,0.782-3.709,2.586-6.297,5.896c-0.537,0.714-1.76,2.104-4.518,4.65
	c-2.131,1.989-5.041,3.994-8.645,5.969c-3.623,1.979-8.096,3.771-13.27,5.3c-5.09,1.504-11.178,2.27-18.082,2.27
	c-7.623,0-14.57-1.414-20.654-4.197c-6.127-2.814-11.355-6.543-15.553-11.096c-4.225-4.592-7.605-9.965-10.045-15.986
	c-2.344-5.769-3.67-11.787-3.963-17.781h117.959c3.168,0,5.877-0.902,8.063-2.684c2.369-1.938,3.621-4.636,3.621-7.805v-4.546
	c0-25.352-7.035-45.565-20.9-60.084C1278.014,145.087,1258.328,137.704,1233.408,137.704z M1233.408,162.913
	c7.898,0,15.145,1.285,21.504,3.829c6.309,2.512,11.676,6.035,15.945,10.463c4.293,4.455,7.646,9.783,9.965,15.85
	c2.033,5.335,3.195,11.07,3.457,17.098h-101.064c0.248-6.036,1.355-11.794,3.311-17.151c2.215-6.048,5.498-11.364,9.775-15.795
	c4.275-4.441,9.539-7.967,15.633-10.485C1218.067,164.192,1225.295,162.913,1233.408,162.913z"/>
<path fill="#666666" d="M1367.865,83.136h-5.818c-7.104,0-11.344,3.919-11.344,10.485V295.52c0,6.563,4.24,10.485,11.344,10.485
	h5.818c7.104,0,11.34-3.922,11.34-10.485V93.62C1379.205,87.053,1374.967,83.136,1367.865,83.136z"/>
<path fill="#666666" stroke="#666666" stroke-width="8" stroke-miterlimit="10" d="M267.25,375.605
	c-2.015-1.412-4.493-1.723-6.809-0.881c-8.218,3.012-16.638,5.402-25.023,7.104c-3.828,0.781-8.003,1.463-12.752,2.072
	c-7.798,1.006-15.469,1.51-22.801,1.51c-7.332,0-15.003-0.504-22.801-1.51c-4.75-0.609-8.923-1.289-12.752-2.072
	c-15.537-3.156-30.683-8.475-45.022-15.793V173.429l102.448-55.993v83.724c0,2.729,1.495,5.247,3.892,6.566
	c2.34,1.266,5.096,1.224,7.408-0.139c2.292-1.357,3.665-3.761,3.665-6.425v-96.341c0-2.625-1.407-5.088-3.665-6.431
	c-2.243-1.336-5.08-1.403-7.408-0.139l-117.417,64.179c-2.396,1.324-3.891,3.836-3.891,6.564v198.936
	c0,4.404,2.368,8.396,6.183,10.418c2.391,1.26,4.813,2.469,7.263,3.633c14.651,6.92,30.167,11.953,46.128,14.979
	c4.229,0.803,8.572,1.471,12.907,1.982c7.852,0.949,15.613,1.436,23.062,1.436c7.444,0,15.205-0.484,23.064-1.428
	c4.334-0.52,8.676-1.184,12.907-1.99c9.982-1.887,19.979-4.643,29.731-8.184c2.916-1.066,4.872-3.893,4.872-7.041
	C270.44,379.289,269.244,377.006,267.25,375.605z"/>
<path fill="#666666" stroke="#666666" stroke-width="8" stroke-miterlimit="10" d="M291.518,255.126l-117.427-64.179
	c-2.298-1.246-5.144-1.197-7.401,0.139c-2.257,1.343-3.663,3.81-3.663,6.432v167.693c0,3.594,2.568,6.654,6.273,7.311
	c2.195,0.389,4.37-0.199,6.045-1.611c1.675-1.41,2.645-3.475,2.645-5.664v-155.12l102.446,56.002v104.499
	c0,2.645,1.364,5.033,3.651,6.387c1.163,0.691,2.45,1.047,3.765,1.047c1.245,0,2.509-0.318,3.707-0.969
	c2.375-1.293,3.85-3.805,3.85-6.539V261.69C295.408,258.951,293.913,256.438,291.518,255.126z"/>
<path fill="#666666" stroke="#666666" stroke-width="8" stroke-miterlimit="10" d="M331.284,66.455
	c-39.571-36.897-91.067-55.136-145.238-51.341C92.946,21.634,16.324,96.586,7.82,189.453
	c-6.059,66.235,21.777,130.053,74.447,170.703c1.33,1.025,2.916,1.545,4.523,1.545c1.122,0,2.257-0.258,3.317-0.773
	c2.603-1.279,4.225-3.863,4.225-6.752c0-2.309-1.067-4.447-2.923-5.879c-47.279-36.496-73.084-93.763-69.033-153.201
	c6.01-87.956,76.85-158.913,164.779-165.064c49.851-3.434,97.449,13.336,133.943,47.366c36.021,33.588,56.673,81.004,56.673,130.098
	c0,55.412-25.305,106.735-69.44,140.797c-1.856,1.42-2.921,3.568-2.921,5.879c0,2.889,1.619,5.475,4.216,6.752
	c2.575,1.268,5.572,0.969,7.837-0.771c47.838-36.926,75.279-92.567,75.279-152.661C392.74,154.271,370.341,102.868,331.284,66.455z"
	/>
<path fill="#666666" stroke="#666666" stroke-width="6.6386" stroke-miterlimit="10" d="M373.261,246.041
	c-10.808,49.827-42.169,92.19-87.408,117.415c-2.045,1.129-3.417,3.094-3.76,5.383c-0.426,2.854,0.793,5.646,3.17,7.297
	c2.36,1.639,5.368,1.791,7.865,0.404c51.015-28.443,85.773-77.004,96.083-133.888C383.9,243.75,378.59,244.911,373.261,246.041z"/>
</svg>
