<?xml version="1.0" encoding="utf-8"?>
<!-- Generator: Adobe Illustrator 15.0.0, SVG Export Plug-In . SVG Version: 6.00 Build 0)  -->
<!DOCTYPE svg PUBLIC "-//W3C//DTD SVG 1.1//EN" "http://www.w3.org/Graphics/SVG/1.1/DTD/svg11.dtd">
<svg version="1.1" id="레이어_1" xmlns="http://www.w3.org/2000/svg" xmlns:xlink="http://www.w3.org/1999/xlink" x="0px"
	 y="0px" width="1504.989px" height="553.036px" viewBox="0 0 1504.989 553.036" enable-background="new 0 0 1504.989 553.036"
	 xml:space="preserve">
<rect x="-75.239" y="1407.115" fill="#F5A622" width="1702.258" height="653"/>
<path fill="#181818" d="M764.979,367.439h-17.772c-8.66,0-14.388-2.279-17.528-6.975c-3.405-5.083-5.133-12.589-5.133-22.311V256.95
	h37.143c6.832,0,10.911-3.771,10.911-10.087v-4.079c0-6.316-4.079-10.087-10.911-10.087h-37.143v-45.33
	c0-6.316-4.08-10.087-10.912-10.087h-5.599c-6.832,0-10.911,3.771-10.911,10.087v45.33h-22.009c-6.833,0-10.912,3.771-10.912,10.087
	v4.079c0,6.316,4.079,10.087,10.912,10.087h22.009v82.373c0,7.076,0.753,13.793,2.237,19.966c1.548,6.423,4.208,12.094,7.915,16.854
	c3.778,4.854,8.918,8.711,15.263,11.457c6.245,2.724,13.987,4.101,23.02,4.101h19.421c6.832,0,10.911-3.771,10.911-10.087v-4.086
	C775.89,371.21,771.811,367.439,764.979,367.439z"/>
<path fill="#181818" d="M883.146,232.697h-12.18c-18.066,0-31.838,4.459-41.094,13.284v-2.911c0-2.975-1.161-5.584-3.384-7.563
	c-2.114-1.864-4.76-2.81-7.856-2.81h-5.27c-3.169,0-5.793,0.982-7.808,2.918c-2.028,1.957-3.104,4.531-3.104,7.456v138.542
	c0,6.316,4.079,10.087,10.911,10.087h5.27c3.047,0,5.656-0.868,7.764-2.588c2.272-1.871,3.477-4.459,3.477-7.499v-90.416
	c0-10.661,3.362-18.826,10.288-24.962c6.946-6.158,16.653-9.284,28.834-9.284h14.151c6.832,0,10.911-3.771,10.911-10.087v-4.079
	C894.057,236.468,889.978,232.697,883.146,232.697z"/>
<path fill="#181818" d="M933.509,232.697h-5.6c-6.832,0-10.911,3.771-10.911,10.087v138.829c0,6.316,4.079,10.087,10.911,10.087h5.6
	c6.832,0,10.911-3.771,10.911-10.087V242.784C944.42,236.468,940.341,232.697,933.509,232.697z"/>
<path fill="#181818" d="M936.799,177.28h-12.51c-3.169,0-5.793,0.982-7.808,2.918c-2.028,1.957-3.104,4.531-3.104,7.463v11.083
	c0,6.316,4.079,10.087,10.911,10.087h12.51c3.04,0,5.649-0.868,7.757-2.588c2.28-1.864,3.484-4.459,3.484-7.499v-11.083
	c0-2.975-1.161-5.592-3.384-7.57C942.541,178.227,939.896,177.28,936.799,177.28z"/>
<path fill="#181818" d="M1139.296,276.271c-2.667-8.703-6.946-16.596-12.718-23.457c-5.828-6.911-13.521-12.539-22.869-16.732
	c-9.32-4.18-20.733-6.302-33.924-6.302c-14.339,0-26.304,2.337-35.544,6.947c-6.08,3.025-11.464,6.617-16.088,10.725v-4.667
	c0-6.316-4.079-10.087-10.911-10.087h-5.6c-6.832,0-10.911,3.771-10.911,10.087V437.03c0,6.316,4.079,10.087,10.911,10.087h5.6
	c6.832,0,10.911-3.771,10.911-10.087v-60.228c4.617,4.029,9.986,7.614,16.052,10.704c9.255,4.717,21.228,7.112,35.58,7.112
	c13.177,0,24.59-2.122,33.916-6.302c9.356-4.194,17.049-9.822,22.877-16.732c5.764-6.854,10.044-14.74,12.718-23.464
	c2.596-8.524,4.144-17.306,4.588-26.017c0.223-3.004,0.337-6.302,0.337-9.908c0-3.599-0.114-6.896-0.337-9.807
	C1143.439,293.591,1141.892,284.809,1139.296,276.271z M1067.807,254.032c9.062,0,16.682,1.405,22.64,4.18
	c5.95,2.774,10.832,6.459,14.518,10.954c3.721,4.553,6.48,9.858,8.201,15.758c1.777,6.144,2.896,12.646,3.312,19.249
	c0.216,5.327,0.216,10.725,0.008,15.958c-0.423,6.696-1.542,13.263-3.319,19.493c-1.729,6.008-4.488,11.356-8.201,15.894
	c-3.678,4.488-8.546,8.123-14.468,10.79c-5.965,2.688-13.6,4.05-22.689,4.05c-8.64,0-16.103-1.405-22.175-4.18
	c-6.129-2.817-11.283-6.416-15.313-10.703c-4.015-4.266-7.012-9.176-8.918-14.604c-1.958-5.556-3.047-11.133-3.255-16.704
	c-0.223-2.846-0.323-6.545-0.323-11.098c0-4.552,0.101-8.244,0.323-11.09l0.007-0.15c0.201-5.628,1.29-11.356,3.255-17.012
	c1.929-5.57,4.903-10.704,8.86-15.285c3.9-4.531,8.977-8.294,15.069-11.184C1051.418,255.488,1058.981,254.032,1067.807,254.032z"/>
<path fill="#181818" d="M1260.044,367.439h-17.771c-8.66,0-14.389-2.279-17.528-6.975c-3.405-5.083-5.133-12.589-5.133-22.311
	V256.95h37.143c6.832,0,10.911-3.771,10.911-10.087v-4.079c0-6.316-4.079-10.087-10.911-10.087h-37.143v-45.33
	c0-6.316-4.08-10.087-10.912-10.087h-5.599c-6.832,0-10.911,3.771-10.911,10.087v45.33h-22.009c-6.832,0-10.912,3.771-10.912,10.087
	v4.079c0,6.316,4.08,10.087,10.912,10.087h22.009v82.373c0,7.076,0.753,13.793,2.236,19.966c1.549,6.423,4.208,12.094,7.915,16.854
	c3.778,4.854,8.918,8.711,15.263,11.457c6.244,2.724,13.987,4.101,23.02,4.101h19.421c6.833,0,10.912-3.771,10.912-10.087v-4.086
	C1270.956,371.21,1266.877,367.439,1260.044,367.439z"/>
<path fill="#181818" d="M1364.72,229.779c-11.141,0-21.335,1.75-30.297,5.205c-8.989,3.477-16.768,8.352-23.112,14.496
	c-6.345,6.123-11.485,13.628-15.292,22.31c-3.771,8.61-6.144,18.174-7.047,28.418l-0.008,0.043
	c-0.222,2.989-0.337,6.975-0.337,11.943c0,4.982,0.115,8.961,0.345,11.994c0.903,10.244,3.276,19.808,7.047,28.418
	c3.793,8.66,8.997,16.216,15.457,22.454c6.459,6.251,14.302,11.133,23.313,14.51c8.939,3.348,19.013,5.047,29.931,5.047
	c10.632,0,20.418-1.384,29.085-4.108c8.624-2.717,16.059-6.043,22.088-9.886c6.144-3.893,10.997-8.101,14.432-12.503
	c3.655-4.703,5.577-8.682,5.843-12.022c0.372-3.047-0.774-5.75-3.255-7.621c-2.079-1.548-4.531-2.33-7.299-2.33h-5.269
	c-2.933,0-5.141,0.337-6.746,1.047c-1.721,0.753-3.57,2.488-6.059,5.67c-0.516,0.688-1.691,2.022-4.344,4.474
	c-2.051,1.914-4.847,3.843-8.31,5.743c-3.491,1.907-7.792,3.627-12.774,5.097c-4.896,1.448-10.754,2.179-17.393,2.179
	c-7.334,0-14.022-1.362-19.873-4.036c-5.893-2.71-10.925-6.294-14.961-10.675c-4.065-4.416-7.32-9.585-9.664-15.377
	c-2.251-5.549-3.534-11.341-3.814-17.113h113.486c3.047,0,5.656-0.867,7.757-2.581c2.28-1.864,3.484-4.459,3.484-7.506v-4.373
	c0-24.389-6.768-43.839-20.109-57.804C1407.634,236.884,1388.693,229.779,1364.72,229.779z M1364.72,254.032
	c7.6,0,14.567,1.24,20.689,3.685c6.072,2.416,11.234,5.807,15.342,10.065c4.13,4.287,7.355,9.413,9.586,15.249
	c1.957,5.133,3.075,10.653,3.326,16.453h-97.234c0.237-5.807,1.305-11.349,3.184-16.503c2.129-5.821,5.29-10.933,9.405-15.198
	c4.115-4.273,9.177-7.664,15.041-10.087C1349.959,255.266,1356.913,254.032,1364.72,254.032z"/>
<path fill="#181818" d="M1494.078,177.28h-5.599c-6.832,0-10.912,3.771-10.912,10.087v194.246c0,6.316,4.08,10.087,10.912,10.087
	h5.599c6.832,0,10.911-3.771,10.911-10.087V187.367C1504.989,181.051,1500.91,177.28,1494.078,177.28z"/>
<path fill="#FFFFFF" d="M764.979,1043.745h-17.772c-8.66,0-14.388-2.28-17.528-6.976c-3.405-5.083-5.133-12.589-5.133-22.311
	v-81.203h37.143c6.832,0,10.911-3.771,10.911-10.087v-4.079c0-6.316-4.079-10.087-10.911-10.087h-37.143v-45.33
	c0-6.316-4.08-10.087-10.912-10.087h-5.599c-6.832,0-10.911,3.771-10.911,10.087v45.33h-22.009c-6.833,0-10.912,3.771-10.912,10.087
	v4.079c0,6.315,4.079,10.087,10.912,10.087h22.009v82.372c0,7.076,0.753,13.793,2.237,19.966c1.548,6.424,4.208,12.094,7.915,16.854
	c3.778,4.854,8.918,8.71,15.263,11.456c6.245,2.725,13.987,4.101,23.02,4.101h19.421c6.832,0,10.911-3.771,10.911-10.087v-4.086
	C775.89,1047.516,771.811,1043.745,764.979,1043.745z"/>
<path fill="#FFFFFF" d="M883.146,909.003h-12.18c-18.066,0-31.838,4.459-41.094,13.284v-2.911c0-2.975-1.161-5.584-3.384-7.563
	c-2.114-1.863-4.76-2.81-7.856-2.81h-5.27c-3.169,0-5.793,0.981-7.808,2.917c-2.028,1.958-3.104,4.531-3.104,7.456v138.542
	c0,6.316,4.079,10.087,10.911,10.087h5.27c3.047,0,5.656-0.867,7.764-2.588c2.272-1.871,3.477-4.459,3.477-7.499v-90.416
	c0-10.66,3.362-18.826,10.288-24.963c6.946-6.158,16.653-9.283,28.834-9.283h14.151c6.832,0,10.911-3.771,10.911-10.087v-4.079
	C894.057,912.773,889.978,909.003,883.146,909.003z"/>
<path fill="#FFFFFF" d="M933.509,909.003h-5.6c-6.832,0-10.911,3.771-10.911,10.087v138.828c0,6.316,4.079,10.087,10.911,10.087h5.6
	c6.832,0,10.911-3.771,10.911-10.087V919.09C944.42,912.773,940.341,909.003,933.509,909.003z"/>
<path fill="#FFFFFF" d="M936.799,853.586h-12.51c-3.169,0-5.793,0.982-7.808,2.918c-2.028,1.957-3.104,4.53-3.104,7.463v11.083
	c0,6.316,4.079,10.087,10.911,10.087h12.51c3.04,0,5.649-0.867,7.757-2.588c2.28-1.864,3.484-4.459,3.484-7.499v-11.083
	c0-2.976-1.161-5.592-3.384-7.571C942.541,854.532,939.896,853.586,936.799,853.586z"/>
<path fill="#FFFFFF" d="M1139.296,952.576c-2.667-8.703-6.946-16.597-12.718-23.457c-5.828-6.911-13.521-12.539-22.869-16.732
	c-9.32-4.18-20.733-6.302-33.924-6.302c-14.339,0-26.304,2.337-35.544,6.946c-6.08,3.025-11.464,6.617-16.088,10.726v-4.667
	c0-6.316-4.079-10.087-10.911-10.087h-5.6c-6.832,0-10.911,3.771-10.911,10.087v194.245c0,6.316,4.079,10.087,10.911,10.087h5.6
	c6.832,0,10.911-3.771,10.911-10.087v-60.228c4.617,4.029,9.986,7.614,16.052,10.704c9.255,4.717,21.228,7.111,35.58,7.111
	c13.177,0,24.59-2.122,33.916-6.302c9.356-4.193,17.049-9.821,22.877-16.732c5.764-6.854,10.044-14.739,12.718-23.464
	c2.596-8.524,4.144-17.307,4.588-26.017c0.223-3.004,0.337-6.302,0.337-9.908c0-3.599-0.114-6.896-0.337-9.807
	C1143.439,969.896,1141.892,961.114,1139.296,952.576z M1067.807,930.338c9.062,0,16.682,1.405,22.64,4.18
	c5.95,2.774,10.832,6.459,14.518,10.954c3.721,4.553,6.48,9.857,8.201,15.758c1.777,6.144,2.896,12.646,3.312,19.248
	c0.216,5.327,0.216,10.726,0.008,15.959c-0.423,6.695-1.542,13.263-3.319,19.492c-1.729,6.008-4.488,11.356-8.201,15.895
	c-3.678,4.487-8.546,8.122-14.468,10.789c-5.965,2.688-13.6,4.051-22.689,4.051c-8.64,0-16.103-1.405-22.175-4.18
	c-6.129-2.817-11.283-6.416-15.313-10.703c-4.015-4.266-7.012-9.177-8.918-14.604c-1.958-5.557-3.047-11.134-3.255-16.704
	c-0.223-2.847-0.323-6.546-0.323-11.098c0-4.553,0.101-8.244,0.323-11.091l0.007-0.15c0.201-5.628,1.29-11.355,3.255-17.012
	c1.929-5.571,4.903-10.704,8.86-15.285c3.9-4.53,8.977-8.294,15.069-11.184C1051.418,931.793,1058.981,930.338,1067.807,930.338z"/>
<path fill="#FFFFFF" d="M1260.044,1043.745h-17.771c-8.66,0-14.389-2.28-17.528-6.976c-3.405-5.083-5.133-12.589-5.133-22.311
	v-81.203h37.143c6.832,0,10.911-3.771,10.911-10.087v-4.079c0-6.316-4.079-10.087-10.911-10.087h-37.143v-45.33
	c0-6.316-4.08-10.087-10.912-10.087h-5.599c-6.832,0-10.911,3.771-10.911,10.087v45.33h-22.009c-6.832,0-10.912,3.771-10.912,10.087
	v4.079c0,6.315,4.08,10.087,10.912,10.087h22.009v82.372c0,7.076,0.753,13.793,2.236,19.966c1.549,6.424,4.208,12.094,7.915,16.854
	c3.778,4.854,8.918,8.71,15.263,11.456c6.244,2.725,13.987,4.101,23.02,4.101h19.421c6.833,0,10.912-3.771,10.912-10.087v-4.086
	C1270.956,1047.516,1266.877,1043.745,1260.044,1043.745z"/>
<path fill="#FFFFFF" d="M1364.72,906.085c-11.141,0-21.335,1.749-30.297,5.204c-8.989,3.478-16.768,8.353-23.112,14.496
	c-6.345,6.122-11.485,13.629-15.292,22.311c-3.771,8.609-6.144,18.173-7.047,28.418l-0.008,0.043
	c-0.222,2.989-0.337,6.976-0.337,11.943c0,4.982,0.115,8.962,0.345,11.994c0.903,10.244,3.276,19.808,7.047,28.418
	c3.793,8.66,8.997,16.217,15.457,22.453c6.459,6.252,14.302,11.134,23.313,14.511c8.939,3.348,19.013,5.047,29.931,5.047
	c10.632,0,20.418-1.384,29.085-4.108c8.624-2.717,16.059-6.043,22.088-9.886c6.144-3.893,10.997-8.101,14.432-12.503
	c3.655-4.702,5.577-8.682,5.843-12.022c0.372-3.047-0.774-5.749-3.255-7.62c-2.079-1.549-4.531-2.33-7.299-2.33h-5.269
	c-2.933,0-5.141,0.337-6.746,1.046c-1.721,0.753-3.57,2.488-6.059,5.671c-0.516,0.688-1.691,2.022-4.344,4.474
	c-2.051,1.914-4.847,3.843-8.31,5.742c-3.491,1.907-7.792,3.628-12.774,5.098c-4.896,1.448-10.754,2.18-17.393,2.18
	c-7.334,0-14.022-1.362-19.873-4.036c-5.893-2.71-10.925-6.295-14.961-10.675c-4.065-4.416-7.32-9.585-9.664-15.378
	c-2.251-5.549-3.534-11.342-3.814-17.112h113.486c3.047,0,5.656-0.867,7.757-2.581c2.28-1.864,3.484-4.459,3.484-7.506v-4.373
	c0-24.39-6.768-43.839-20.109-57.805C1407.634,913.189,1388.693,906.085,1364.72,906.085z M1364.72,930.338
	c7.6,0,14.567,1.24,20.689,3.685c6.072,2.416,11.234,5.807,15.342,10.065c4.13,4.287,7.355,9.413,9.586,15.249
	c1.957,5.133,3.075,10.652,3.326,16.452h-97.234c0.237-5.807,1.305-11.349,3.184-16.503c2.129-5.821,5.29-10.933,9.405-15.198
	c4.115-4.272,9.177-7.664,15.041-10.087C1349.959,931.57,1356.913,930.338,1364.72,930.338z"/>
<path fill="#FFFFFF" d="M1494.078,853.586h-5.599c-6.832,0-10.912,3.771-10.912,10.087v194.245c0,6.316,4.08,10.087,10.912,10.087
	h5.599c6.832,0,10.911-3.771,10.911-10.087V863.673C1504.989,857.356,1500.91,853.586,1494.078,853.586z"/>
<text transform="matrix(1.1095 0 0 1 258.6025 -1479.1177)" font-family="'RixSinGoRoundB'" font-size="264.1654">vinpearl trip</text>
<g>
	<path fill="#181818" d="M373.107,517.528c-2.889-2.025-6.442-2.472-9.758-1.261c-11.783,4.318-23.854,7.743-35.875,10.185
		c-5.49,1.122-11.476,2.095-18.285,2.969c-11.177,1.439-22.176,2.164-32.688,2.164s-21.511-0.725-32.688-2.164
		c-6.81-0.874-12.795-1.847-18.285-2.969c-22.275-4.526-43.985-12.15-64.543-22.643v-276.13l146.875-80.277v120.033
		c0,3.911,2.144,7.524,5.579,9.411c3.355,1.816,7.306,1.757,10.622-0.199c3.286-1.945,5.251-5.39,5.251-9.212v-138.12
		c0-3.762-2.015-7.296-5.251-9.222c-3.216-1.916-7.286-2.005-10.622-0.199l-168.336,92.01c-3.435,1.896-5.579,5.5-5.579,9.411
		V506.52c0,6.313,3.395,12.041,8.864,14.939c3.425,1.807,6.899,3.544,10.413,5.212c21.005,9.917,43.25,17.134,66.132,21.472
		c6.065,1.151,12.289,2.104,18.503,2.839c11.257,1.359,22.385,2.055,33.066,2.055c10.671,0,21.799-0.695,33.066-2.045
		c6.214-0.744,12.438-1.697,18.503-2.849c14.314-2.71,28.648-6.661,42.625-11.733c4.179-1.529,6.988-5.579,6.988-10.096
		C377.683,522.81,375.966,519.533,373.107,517.528z"/>
	<path fill="#181818" d="M407.9,344.804l-168.347-92.01c-3.295-1.787-7.375-1.717-10.611,0.198c-3.236,1.926-5.251,5.46-5.251,9.222
		v240.414c0,5.152,3.683,9.54,8.994,10.483c3.147,0.556,6.264-0.288,8.666-2.313c2.402-2.024,3.792-4.983,3.792-8.12V280.291
		l146.875,80.287v149.814c0,3.792,1.956,7.216,5.231,9.162c1.667,0.992,3.514,1.499,5.4,1.499c1.787,0,3.593-0.457,5.311-1.39
		c3.405-1.856,5.519-5.45,5.519-9.381V354.215C413.479,350.284,411.334,346.68,407.9,344.804z"/>
	<path fill="#181818" d="M464.909,74.312C408.178,21.413,334.353-4.734,256.687,0.706C123.213,10.057,13.364,117.513,1.174,250.649
		c-8.686,94.959,31.219,186.453,106.731,244.732c1.906,1.47,4.179,2.214,6.482,2.214c1.608,0,3.236-0.367,4.755-1.112
		c3.732-1.836,6.056-5.539,6.056-9.678c0-3.306-1.529-6.373-4.189-8.428C53.229,426.054,16.233,343.951,22.04,258.74
		C30.656,132.641,132.216,30.913,258.275,22.098c71.472-4.923,139.708,19.119,192.032,67.909
		c51.639,48.154,81.25,116.132,81.25,186.512c0,79.443-36.282,153.02-99.555,201.859c-2.661,2.035-4.189,5.112-4.189,8.428
		c0,4.139,2.323,7.842,6.045,9.678c3.693,1.817,7.991,1.391,11.237-1.102c68.583-52.939,107.923-132.709,107.923-218.863
		C553.018,200.212,520.905,126.517,464.909,74.312z"/>
	<path fill="#181818" d="M525.093,331.776c-15.498,71.434-60.457,132.169-125.314,168.328c-2.931,1.622-4.898,4.438-5.389,7.718
		c-0.614,4.092,1.135,8.1,4.544,10.465c3.381,2.347,7.697,2.563,11.276,0.578c73.138-40.782,122.97-110.401,137.75-191.948
		C540.345,328.492,532.731,330.158,525.093,331.776z"/>
</g>
<g>
	<path fill="#FFFFFF" d="M374.106,1193.806c-2.889-2.025-6.442-2.472-9.758-1.261c-11.783,4.318-23.854,7.743-35.875,10.185
		c-5.49,1.122-11.476,2.095-18.285,2.969c-11.177,1.439-22.176,2.164-32.688,2.164s-21.511-0.725-32.688-2.164
		c-6.81-0.874-12.795-1.847-18.285-2.969c-22.275-4.526-43.985-12.15-64.543-22.643V903.956l146.875-80.276v120.033
		c0,3.911,2.144,7.524,5.579,9.411c3.355,1.816,7.306,1.756,10.622-0.199c3.286-1.945,5.251-5.391,5.251-9.212v-138.12
		c0-3.762-2.015-7.296-5.251-9.221c-3.216-1.916-7.286-2.006-10.622-0.199l-168.336,92.01c-3.435,1.896-5.579,5.5-5.579,9.411
		v285.203c0,6.313,3.395,12.041,8.864,14.939c3.425,1.807,6.899,3.544,10.413,5.212c21.005,9.917,43.25,17.134,66.132,21.472
		c6.065,1.151,12.289,2.104,18.503,2.839c11.257,1.359,22.385,2.055,33.066,2.055c10.671,0,21.799-0.695,33.066-2.045
		c6.214-0.744,12.438-1.697,18.503-2.849c14.314-2.71,28.648-6.661,42.625-11.733c4.179-1.529,6.988-5.579,6.988-10.096
		C378.683,1199.087,376.965,1195.811,374.106,1193.806z"/>
	<path fill="#FFFFFF" d="M408.899,1021.081l-168.347-92.01c-3.295-1.787-7.375-1.717-10.611,0.198
		c-3.236,1.926-5.251,5.46-5.251,9.222v240.414c0,5.152,3.683,9.54,8.994,10.483c3.147,0.556,6.264-0.288,8.666-2.313
		c2.402-2.024,3.792-4.983,3.792-8.12V956.567l146.875,80.287v149.814c0,3.792,1.956,7.216,5.231,9.162
		c1.667,0.992,3.514,1.499,5.4,1.499c1.787,0,3.593-0.457,5.311-1.39c3.405-1.856,5.519-5.45,5.519-9.381v-156.067
		C414.478,1026.562,412.334,1022.958,408.899,1021.081z"/>
	<path fill="#FFFFFF" d="M465.909,750.589c-56.731-52.898-130.556-79.045-208.222-73.605
		C124.212,686.334,14.364,793.79,2.174,926.927c-8.686,94.959,31.219,186.453,106.731,244.732c1.906,1.47,4.179,2.214,6.482,2.214
		c1.608,0,3.236-0.367,4.755-1.112c3.732-1.836,6.056-5.539,6.056-9.678c0-3.307-1.529-6.373-4.189-8.428
		c-67.779-52.324-104.776-134.428-98.969-219.639c8.616-126.098,110.176-227.826,236.235-236.642
		c71.472-4.923,139.708,19.119,192.032,67.909c51.639,48.154,81.25,116.132,81.25,186.512c0,79.443-36.282,153.02-99.555,201.859
		c-2.661,2.035-4.189,5.111-4.189,8.428c0,4.139,2.323,7.842,6.045,9.678c3.693,1.817,7.991,1.391,11.237-1.102
		c68.584-52.939,107.924-132.709,107.924-218.863C554.018,876.489,521.905,802.794,465.909,750.589z"/>
	<path fill="#FFFFFF" d="M526.092,1008.054c-15.497,71.434-60.456,132.169-125.314,168.328c-2.931,1.622-4.898,4.438-5.389,7.718
		c-0.614,4.092,1.135,8.1,4.544,10.465c3.381,2.347,7.697,2.563,11.276,0.578c73.138-40.782,122.97-110.401,137.75-191.948
		C541.344,1004.77,533.731,1006.436,526.092,1008.054z"/>
</g>
</svg>
