<?xml version="1.0" encoding="utf-8"?>
<!-- Generator: Adobe Illustrator 15.0.0, SVG Export Plug-In . SVG Version: 6.00 Build 0)  -->
<!DOCTYPE svg PUBLIC "-//W3C//DTD SVG 1.1//EN" "http://www.w3.org/Graphics/SVG/1.1/DTD/svg11.dtd">
<svg version="1.1" id="레이어_1" xmlns="http://www.w3.org/2000/svg" xmlns:xlink="http://www.w3.org/1999/xlink" x="0px"
	 y="0px" width="1379.207px" height="415px" viewBox="0 0 1379.207 415" enable-background="new 0 0 1379.207 415"
	 xml:space="preserve">
<path fill="none" stroke="#FFFFFF" stroke-width="26" stroke-miterlimit="10" d="M396.642,207.501
	c0,103.854-84.192,188.047-188.047,188.047c-103.857,0-188.049-84.192-188.049-188.047c0-103.855,84.192-188.048,188.049-188.048
	C312.449,19.453,396.642,103.646,396.642,207.501z"/>
<polyline fill="none" stroke="#FFFFFF" stroke-width="29" stroke-linecap="round" stroke-linejoin="round" stroke-miterlimit="10" points="
	117.157,366.65 117.157,172.94 246.32,141.892 246.32,240.561 "/>
<polyline fill="none" stroke="#FFFFFF" stroke-width="29" stroke-linecap="round" stroke-linejoin="round" stroke-miterlimit="10" points="
	196.696,386.281 196.696,242.188 312.358,263.967 312.358,360.836 "/>
<path fill="#FFFFFF" stroke="#FFFFFF" stroke-width="0.727" stroke-miterlimit="10" d="M590.607,290.756h-18.639
	c-9.082,0-15.088-2.389-18.383-7.316c-3.564-5.327-5.379-13.199-5.379-23.396v-85.157h38.951c7.163,0,11.438-3.954,11.438-10.576
	v-4.278c0-6.624-4.273-10.578-11.438-10.578h-38.951v-47.539c0-6.623-4.281-10.576-11.444-10.576l-5.87-1.214
	c-7.164,0-11.443,3.953-11.443,10.576v47.537h-23.081c-7.165,0-11.44,3.955-11.44,10.58v4.276c0,6.62,4.275,10.578,11.44,10.578
	h23.081v86.385c0,7.42,0.791,14.465,2.348,20.938c1.621,6.736,4.412,12.684,8.303,17.678c3.957,5.092,9.351,10.348,16.005,13.227
	c6.55,2.859,14.669,4.305,24.142,4.305h20.369c7.164,0,11.438-3.953,11.438-10.579v-4.285
	C602.052,294.713,597.774,290.756,590.607,290.756z"/>
<path fill="#FFFFFF" stroke="#FFFFFF" stroke-width="0.727" stroke-miterlimit="10" d="M714.531,149.456H701.76
	c-18.949,0-33.394,4.677-43.097,13.929v-3.049c0-3.123-1.215-5.857-3.545-7.931c-2.22-1.955-4.998-2.947-8.244-2.947h-5.526
	c-3.319,0-6.073,1.027-8.194,3.06c-2.121,2.054-3.257,4.749-3.257,7.819v145.287c0,6.621,4.282,10.579,11.444,10.579h5.529
	c3.195,0,5.931-0.907,8.139-2.711c2.384-1.96,3.65-4.68,3.65-7.867v-94.819c0-11.177,3.529-19.74,10.79-26.181
	c7.282-6.455,17.462-9.732,30.241-9.732h14.834c7.166,0,11.443-3.955,11.443-10.577v-4.276
	C725.974,153.406,721.697,149.456,714.531,149.456z"/>
<path fill="#FFFFFF" stroke="#FFFFFF" stroke-width="0.727" stroke-miterlimit="10" d="M767.347,149.456h-5.871
	c-7.164,0-11.443,3.954-11.443,10.578v145.588c0,6.621,4.279,10.58,11.443,10.58h5.871c7.166,0,11.441-3.957,11.441-10.58V160.035
	C778.789,153.406,774.51,149.456,767.347,149.456z"/>
<path fill="#FFFFFF" stroke="#FFFFFF" stroke-width="0.727" stroke-miterlimit="10" d="M770.802,91.339H757.68
	c-3.324,0-6.076,1.027-8.195,3.061c-2.123,2.053-3.254,4.749-3.254,7.826v11.623c0,6.622,4.275,10.576,11.438,10.576h13.117
	c3.19,0,5.928-0.908,8.139-2.71c2.387-1.956,3.651-4.676,3.651-7.864v-11.623c0-3.123-1.221-5.866-3.551-7.939
	C776.818,92.329,774.045,91.339,770.802,91.339z"/>
<path fill="#FFFFFF" stroke="#FFFFFF" stroke-width="0.727" stroke-miterlimit="10" d="M983.156,195.148
	c-2.795-9.126-7.283-17.405-13.336-24.599c-6.115-7.245-14.18-13.151-23.984-17.545c-9.771-4.386-21.743-6.609-35.577-6.609
	c-15.037,0-27.589,2.451-37.275,7.282c-6.377,3.174-12.021,6.939-16.871,11.251v-4.895c0-6.625-4.276-10.577-11.442-10.577h-5.879
	c-7.162,0-11.438,3.953-11.438,10.577v203.705c0,6.623,4.274,10.578,11.438,10.578h5.879c7.166,0,11.442-3.955,11.442-10.578
	v-63.161c4.838,4.227,10.468,7.983,16.836,11.227c9.703,4.944,22.261,7.454,37.308,7.454c13.817,0,25.795-2.222,35.572-6.609
	c9.807-4.393,17.879-10.299,23.989-17.541c6.043-7.195,10.531-15.463,13.336-24.61c2.724-8.94,4.349-18.153,4.813-27.287
	c0.236-3.151,0.354-6.608,0.354-10.391c0-3.771-0.117-7.229-0.354-10.284C987.502,213.313,985.879,204.104,983.156,195.148z
	 M908.187,171.829c9.504,0,17.494,1.47,23.742,4.383c6.24,2.909,11.361,6.774,15.225,11.489c3.9,4.774,6.797,10.335,8.6,16.524
	c1.865,6.444,3.037,13.264,3.47,20.186c0.231,5.59,0.231,11.252,0.016,16.737c-0.44,7.021-1.619,13.91-3.483,20.441
	c-1.808,6.301-4.705,11.907-8.601,16.668c-3.854,4.707-8.959,8.52-15.166,11.314c-6.258,2.82-14.264,4.248-23.795,4.248
	c-9.063,0-16.889-1.469-23.26-4.381c-6.424-2.955-11.83-6.729-16.058-11.226c-4.215-4.473-7.354-9.622-9.352-15.313
	c-2.051-5.83-3.195-11.679-3.414-17.517c-0.236-2.987-0.34-6.864-0.34-11.643c0-4.771,0.107-8.644,0.34-11.63l0.012-0.153
	c0.203-5.905,1.353-11.91,3.414-17.843c2.021-5.84,5.135-11.226,9.285-16.03c4.094-4.749,9.42-8.697,15.803-11.729
	C891.002,173.355,898.927,171.829,908.187,171.829z"/>
<path fill="#FFFFFF" stroke="#FFFFFF" stroke-width="0.727" stroke-miterlimit="10" d="M1109.785,290.756h-18.639
	c-9.08,0-15.09-2.389-18.383-7.316c-3.568-5.327-5.383-13.199-5.383-23.396v-85.157h38.953c7.163,0,11.44-3.954,11.44-10.576v-4.278
	c0-6.624-4.276-10.578-11.44-10.578h-38.953v-47.539c0-6.623-4.277-10.576-11.439-10.576h-5.873
	c-7.164,0-11.441,3.953-11.441,10.576v47.539h-23.082c-7.162,0-11.44,3.953-11.44,10.578v4.278c0,6.621,4.278,10.576,11.44,10.576
	h23.082v86.387c0,7.418,0.793,14.463,2.346,20.938c1.621,6.736,4.412,12.684,8.304,17.677c3.963,5.095,9.35,9.134,16.006,12.013
	c6.549,2.859,14.668,4.305,24.142,4.305h20.37c7.164,0,11.447-3.953,11.447-10.579v-4.285
	C1121.228,294.713,1116.953,290.756,1109.785,290.756z"/>
<path fill="#FFFFFF" stroke="#FFFFFF" stroke-width="0.727" stroke-miterlimit="10" d="M1219.56,146.395
	c-11.682,0-22.373,1.833-31.771,5.453c-9.426,3.65-17.584,8.764-24.235,15.203c-6.652,6.42-12.045,14.292-16.037,23.4
	c-3.953,9.025-6.442,19.057-7.392,29.803l-0.008,0.044c-0.229,3.136-0.352,7.317-0.352,12.524c0,5.225,0.119,9.399,0.355,12.578
	c0.95,10.742,3.438,20.774,7.391,29.805c3.979,9.077,9.438,17.008,16.209,23.546c6.771,6.556,14.998,11.677,24.453,15.22
	c9.371,3.512,19.936,5.295,31.385,5.295c11.15,0,21.412-1.451,30.5-4.309c9.043-2.85,16.838-6.336,23.164-10.368
	c6.443-4.084,11.529-8.499,15.133-13.11c3.832-4.933,5.85-9.104,6.131-12.609c0.385-3.196-0.814-6.027-3.416-7.988
	c-2.176-1.623-4.75-2.443-7.654-2.443h-5.526c-3.074,0-5.394,0.354-7.074,1.1c-1.803,0.789-3.742,2.607-6.353,5.948
	c-0.543,0.722-1.772,2.122-4.561,4.692c-2.15,2.008-5.086,4.029-8.721,6.021c-3.654,1.998-8.164,3.804-13.389,5.345
	c-5.138,1.519-11.277,2.291-18.244,2.291c-7.691,0-14.699-1.426-20.838-4.233c-6.185-2.841-11.457-6.603-15.693-11.193
	c-4.26-4.633-7.672-10.053-10.131-16.131c-2.365-5.819-3.707-11.892-4-17.939h119.012c3.197,0,5.93-0.91,8.135-2.708
	c2.391-1.954,3.65-4.678,3.65-7.874v-4.586c0-25.582-7.098-45.976-21.086-60.624C1264.564,153.844,1244.705,146.395,1219.56,146.395
	z M1219.56,171.829c7.971,0,15.281,1.297,21.697,3.863c6.363,2.536,11.779,6.089,16.09,10.558c4.332,4.494,7.711,9.87,10.053,15.99
	c2.053,5.383,3.227,11.17,3.488,17.252h-101.971c0.252-6.092,1.371-11.899,3.344-17.305c2.23-6.103,5.547-11.465,9.859-15.936
	c4.317-4.48,9.625-8.039,15.772-10.579C1204.08,173.12,1211.373,171.829,1219.56,171.829z"/>
<path fill="#FFFFFF" stroke="#FFFFFF" stroke-width="0.727" stroke-miterlimit="10" d="M1355.22,91.339h-5.873
	c-7.164,0-11.443,3.954-11.443,10.578v203.704c0,6.621,4.279,10.58,11.443,10.58h5.873c7.164,0,11.438-3.957,11.438-10.58V101.917
	C1366.662,95.292,1362.384,91.339,1355.22,91.339z"/>
</svg>
