<?xml version="1.0" encoding="utf-8"?>
<!-- Generator: Adobe Illustrator 15.0.0, SVG Export Plug-In . SVG Version: 6.00 Build 0)  -->
<!DOCTYPE svg PUBLIC "-//W3C//DTD SVG 1.1//EN" "http://www.w3.org/Graphics/SVG/1.1/DTD/svg11.dtd">
<svg version="1.1" id="레이어_1" xmlns="http://www.w3.org/2000/svg" xmlns:xlink="http://www.w3.org/1999/xlink" x="0px"
	 y="0px" width="240.892px" height="90.5px" viewBox="0 0 240.892 90.5" enable-background="new 0 0 240.892 90.5"
	 xml:space="preserve">
<g>
	<path fill="#FFFFFF" d="M1,11.348h14.573v11.366h11.503v13.611H15.573v14.665c0,1.65,0.358,2.812,1.077,3.483
		c0.718,0.672,1.978,1.008,3.781,1.008h6.645v13.703h-5.408c-7.088,0-12.305-1.55-15.65-4.652C2.673,61.431,1,56.565,1,49.935
		V11.348z"/>
	<path fill="#FFFFFF" d="M33.472,69.183V22.714h13.427v6.965c1.467-2.413,3.361-4.177,5.683-5.293
		c2.321-1.115,5.285-1.672,8.89-1.672h1.742v14.069h-0.642c-5.286,0-9.097,1.169-11.434,3.506
		c-2.337,2.337-3.506,6.149-3.506,11.434v17.46H33.472z"/>
	<path fill="#FFFFFF" d="M65.898,10.157c0-2.352,0.833-4.354,2.498-6.003c1.665-1.649,3.673-2.475,6.026-2.475
		c2.352,0,4.361,0.825,6.026,2.475c1.665,1.65,2.498,3.651,2.498,6.003c0,2.353-0.833,4.362-2.498,6.026
		c-1.666,1.666-3.674,2.498-6.026,2.498c-2.353,0-4.362-0.832-6.026-2.498C66.73,14.519,65.898,12.51,65.898,10.157z"/>
	<rect x="66.998" y="22.714" fill="#FFFFFF" width="14.848" height="46.469"/>
	<path fill="#FFFFFF" d="M89.159,89.164V48.423c0-3.543,0.152-6.248,0.458-8.111c0.305-1.863,0.809-3.559,1.512-5.087
		c1.894-4.155,4.736-7.431,8.524-9.83c3.788-2.398,8.02-3.598,12.694-3.598c6.752,0,12.335,2.262,16.75,6.783
		c4.415,4.522,6.622,10.266,6.622,17.231c0,6.965-2.2,12.71-6.599,17.231c-4.399,4.522-9.99,6.782-16.773,6.782
		c-0.917,0-1.91-0.062-2.979-0.183c-1.07-0.123-2.2-0.306-3.392-0.55V53.876c1.436,0.458,2.597,0.779,3.483,0.962
		s1.665,0.275,2.337,0.275c2.75,0,4.934-0.84,6.553-2.521c1.619-1.68,2.429-3.941,2.429-6.782c0-2.811-0.772-5.048-2.314-6.714
		c-1.543-1.665-3.613-2.498-6.209-2.498c-2.812,0-4.958,0.886-6.439,2.658c-1.482,1.772-2.223,4.339-2.223,7.699v42.207H89.159z"/>
	<path fill="#FFFFFF" d="M141.153,11.348h14.573v11.366h11.503v13.611h-11.503v14.665c0,1.65,0.358,2.812,1.077,3.483
		c0.718,0.672,1.978,1.008,3.781,1.008h6.646v13.703h-5.408c-7.088,0-12.305-1.55-15.65-4.652
		c-3.345-3.101-5.018-7.966-5.018-14.596V11.348z"/>
	<path fill="#FFFFFF" d="M220.37,51.906c-2.444,5.774-5.866,10.235-10.265,13.382c-4.4,3.147-9.395,4.72-14.986,4.72
		c-3.086,0-6.057-0.604-8.914-1.81c-2.857-1.207-5.385-2.94-7.584-5.202c-2.292-2.321-4.025-4.934-5.202-7.836
		c-1.176-2.902-1.764-5.988-1.764-9.257c0-3.269,0.588-6.354,1.764-9.257c1.176-2.902,2.91-5.515,5.202-7.837
		c2.2-2.229,4.712-3.941,7.539-5.133c2.826-1.191,5.813-1.787,8.959-1.787c4.704,0,8.936,1.245,12.694,3.735
		s6.844,6.118,9.257,10.884l-22.501,15.307l-5.637-8.524l12.19-8.478c-0.795-0.519-1.62-0.909-2.475-1.168
		c-0.856-0.259-1.741-0.39-2.658-0.39c-2.872,0-5.316,1.093-7.333,3.277c-2.016,2.185-3.024,4.866-3.024,8.042
		c0,3.239,0.993,5.958,2.979,8.158c1.986,2.199,4.415,3.299,7.287,3.299c2.688,0,5.186-0.809,7.493-2.429
		c2.306-1.619,4.269-3.971,5.889-7.058L220.37,51.906z"/>
	<path fill="#FFFFFF" d="M224.704,69.183V3.558h14.849v65.625H224.704z"/>
</g>
</svg>
